<svg xmlns="http://www.w3.org/2000/svg" viewBox="0 0 420 220" preserveAspectRatio="xMidYMid slice">
  <!-- Larger, intricate kumo pattern inspired by traditional Japanese scroll clouds. -->
  <defs>
    <g id="kumo-a" fill="none" stroke="#000" stroke-width="5.5" stroke-linecap="round" stroke-linejoin="round">
      <path d="M4 74h36c10 0 18-8 18-18s-8-18-18-18h-4" />
      <path d="M36 38a18 18 0 1 1 0 36" />
      <path d="M74 74h44c10 0 18-8 18-18s-8-18-18-18h-4" />
      <path d="M112 38a18 18 0 1 1 0 36" />
      <path d="M150 74h42c10 0 18-8 18-18s-8-18-18-18h-4" />
      <path d="M186 38a18 18 0 1 1 0 36" />
      <path d="M44 74h18" />
      <path d="M126 74h16" />
      <path d="M87 56a8 8 0 1 1 0 16" />
      <path d="M169 56a8 8 0 1 1 0 16" />
      <path d="M22 56a7 7 0 1 1 0 14" />
      <path d="M204 56a7 7 0 1 1 0 14" />
    </g>
    <g id="kumo-b" fill="none" stroke="#000" stroke-width="5.5" stroke-linecap="round" stroke-linejoin="round">
      <path d="M8 70h26c9 0 16-7 16-16s-7-16-16-16h-3" />
      <path d="M31 38a16 16 0 1 1 0 32" />
      <path d="M66 78h54c11 0 20-8 20-19s-9-19-20-19h-4" />
      <path d="M112 40a20 20 0 1 1 0 38" />
      <path d="M158 72h34c9 0 16-7 16-16s-7-16-16-16h-3" />
      <path d="M188 40a16 16 0 1 1 0 32" />
      <path d="M46 70h12" />
      <path d="M146 72h10" />
      <path d="M90 58a7 7 0 1 1 0 14" />
      <path d="M172 56a6 6 0 1 1 0 12" />
    </g>
    <g id="kumo-c" fill="none" stroke="#000" stroke-width="5.5" stroke-linecap="round" stroke-linejoin="round">
      <path d="M-2 76h40c10 0 18-8 18-18s-8-18-18-18h-4" />
      <path d="M34 40a18 18 0 1 1 0 36" />
      <path d="M78 68h30c8 0 14-6 14-14s-6-14-14-14h-3" />
      <path d="M104 40a14 14 0 1 1 0 28" />
      <path d="M130 80h56c12 0 22-9 22-21s-10-21-22-21h-5" />
      <path d="M178 38a22 22 0 1 1 0 42" />
      <path d="M54 76h18" />
      <path d="M120 68h8" />
      <path d="M154 80h14" />
      <path d="M22 58a8 8 0 1 1 0 16" />
      <path d="M198 60a8 8 0 1 1 0 16" />
    </g>
  </defs>

  <g opacity="0.98">
    <use href="#kumo-c" transform="translate(-264 -92) scale(2.46) rotate(-15 120 76)" />
    <use href="#kumo-b" transform="translate(238 -44) scale(0.98) rotate(11 120 76)" />
    <use href="#kumo-a" transform="translate(8 138) scale(1.7) rotate(19 120 76)" />
  </g>
</svg>
