<svg xmlns="http://www.w3.org/2000/svg" viewBox="0 0 240 140" preserveAspectRatio="xMidYMid slice">
  <defs>
    <pattern id="cloud" x="0" y="0" width="240" height="140" patternUnits="userSpaceOnUse">
      <g fill="none" stroke="#000" stroke-width="6" stroke-linecap="round" stroke-linejoin="round" opacity="0.9">
        <path d="M-30 50 q30 -25 60 0 q30 25 60 0 q30 -25 60 0 q30 25 60 0" />
        <path d="M-10 90 q30 -22 60 0 q30 22 60 0 q30 -22 60 0 q30 22 60 0" />
        <path d="M-20 20 q25 -18 50 0 q25 18 50 0 q25 -18 50 0 q25 18 50 0" />
        <path d="M0 120 q28 -20 56 0 q28 20 56 0 q28 -20 56 0 q28 20 56 0" />
      </g>
    </pattern>
  </defs>
  <rect width="100%" height="100%" fill="url(#cloud)" />
</svg>
