<svg xmlns="http://www.w3.org/2000/svg" viewBox="0 0 240 160" preserveAspectRatio="xMidYMid slice">
  <defs>
    <pattern id="clouds" x="0" y="0" width="240" height="160" patternUnits="userSpaceOnUse">
      <g fill="none" stroke="#000" stroke-width="7" stroke-linecap="round" stroke-linejoin="round" opacity="0.9">
        <path d="M-40 60 q30 -28 60 0 q30 28 60 0 q30 -28 60 0 q30 28 60 0" />
        <path d="M-20 100 q32 -26 64 0 q32 26 64 0 q32 -26 64 0 q32 26 64 0" />
        <path d="M-10 30 q25 -18 50 0 q25 18 50 0 q25 -18 50 0 q25 18 50 0" />
        <path d="M0 140 q28 -20 56 0 q28 20 56 0 q28 -20 56 0 q28 20 56 0" />
      </g>
    </pattern>
  </defs>
  <rect width="100%" height="100%" fill="url(#clouds)" />
</svg>
