<?xml version="1.0" encoding="UTF-8" standalone="no"?>
<svg xmlns:rdf="http://www.w3.org/1999/02/22-rdf-syntax-ns#" xmlns="http://www.w3.org/2000/svg" height="503pt" width="613pt" version="1.1" xmlns:cc="http://creativecommons.org/ns#" xmlns:dc="http://purl.org/dc/elements/1.1/" viewBox="0 0 613 503">
<path d="m310.39 2.36c14.76-3.03 35.88 9.68 27.84 26.42-16.65 10.8 2.96 31.51-14.34 42.35 33.52 16.09 68.03 36.06 91.62 66.37 29.47 35.7 73.36 62.34 87.21 108.8 8.83 27.35-3.15 54.52-10.89 80.42 1.69 24.73 7.57 52.01 27.65 68.79 8.37 6.67 11.68 17.04 17.5 25.59 6.27-4.24 11.93-12.55 20.75-8.95 15.4 7.41 19.077 26.581 34.737 33.951 6.611 5.6957 16.063 0.81892 17.953 8.6789-16.12 8.25-37.24 6.09-52.28-3.84-4.5-1.99-8.48-6.85-13.96-5.26-2.03 5.12 2.98 18.41-5.17 17.15-1.79-5.73 6.04-21.69-5-16.87 4.68 8.62-2.07 12.07-4.2 2.11-16.57 0.28 1.71 16.24-1.8 22.84-6.96-1.89-5.59-14.89-10.78-18.57-13.15 5.55-24.97 14.14-38.71 18.29-21.18 3.45-43.6 5.89-64.76 2.55-19.17-21.81-9.82-55.46-23.69-79.86-8.13-20.97 1.94-40.61 1.9-62.31l-2.72 0.2c-2.33 22.72-7.96 45.84-3.13 68.63 4.47 23.66 3.91 49.45 17.77 70.24 2.76 2.39-2.53 3.73-3.68 1.76-13.83-22.22-13.68-49.48-18.47-74.45-5.61-22.06 1.77-44.21 2.98-66.28-31.44-1.01-65.47-16.18-94.6-0.12 18.93 11.34 38.37 26.7 47.93 47.99 6.78 19.22 16.29 37.34 25.48 55.49 7.38 15.5 25.31 24.39 30.12 41.27-4.02 14.3-21.38 9.26-32.28 8.35-17.01 6.21-34.57 13.31-52.68 15.75-14.36-3.79-5.1-16.91 4.87-13.35 12.51-6.26 30.28-17.49 31.97-32.91-16.78-37.69-53.84-58.96-79.71-89.39-12.81-12.79-32.77-22.89-34.01-43.01-3-8.7-1.39-20.36 7.75-24.69 23.56-11.2 44.67-27.66 70.04-34.89 26.43-9.27 54.63-6.22 82.02-8.04 2.41-9.71 6.99-18.63 10.2-28.05-12.8-0.87-24.47-7.78-34.63-15.16-6.65-1.92-14.43-1.2-19.35-7.17-5.75-3.39-0.36-13.4-6.94-15.18-10.94 2.86-28.73 4.1-32.44-9.44-5.67-8.8-2.22-20.25-7.38-29.16-25.69-1.45-42.99 20.88-59 37.69-16.42 9.51-30.5 23.37-48.74 29.35-29.88 1.57-52.93-19.96-77.42-33.36-16.83-8.06-22.54-27.11-30.32-42.62-6.89-7.92-15.31-17.7-11.5-29.13 5.77 0.62 2.53 12.17 7.17 15.88 0.97-6.18 2.14-12.34 3.12-18.52-16.09-10.13-31.72-21.49-49.39-28.71-5.51-3.29-17.34-0.81-19.05-7.7 6.01 0.03 12.04 0.02 18 0.87-5.09-6.16-16.46-3.46-23.03-8.49 1-6.9 13.25-0.59 18.3-1.49-6.67-7.88-23.8-2.75-26.13-14.11 8.39 1.37 17.02 1.72 24.98 4.96-3.28-5.73-12.97-7.17-14.04-13.78 22.93 8.24 40.11 27.12 58.98 41.78 34.45 15.52 73.26 8.62 109.66 14.17 28.84 9.29 55.93-8.68 82.01-18.46-1.17-5.91-11.9-5.44-13.89-11.9-3.06-13.38 3.66-26.23 11.61-36.5 4.82-20.81 28.52-29.76 47.99-26.97m-212.95 113.01c-2.72 1.53-1.91 6.44-2.66 9.36 2.49-0.7 7.59-11.16 2.66-9.36m5.62 2.93c-0.16 5.45-4.57 10.83-1.65 16.18 6.33 10.85 7.2 27.85 21.8 31.38 20.68 4.19 42.03 7.54 60.23 19 32.22-5.26 40.85-43.12 64.41-61.04-17.56 1.26-33.28 12.33-51.29 9.57-31.75-0.31-62.92-7.19-93.5-15.09m245.94 75.94c0.16 6.33 6.95 9.94 12.58 10.66-1.8-4.91-7.97-8.67-12.58-10.66m62.47 134.13c-5.15 0.83-10.52 0.99-15.41 2.89-1.96 21.63-6.68 43.4-0.98 64.96 3.6-20.91 4.46-43.93 16.63-62.48 1.1-1.87 4.17-6.94-0.24-5.37m76.6 7.78c1.22 24.69 10.1 52.37 24.4 74.35 5.6 5.91 10 15.76 19.92 13.58-3.85-17.77-20.73-28.59-30.37-43.11-9.61-13.09-8.67-31.23-13.95-44.82m-3.74 10.35c6.87 25.61 2.6 56.45 22.79 76.5 1.99-0.26 11.03 1.71 7.81-2.78-18.07-20.49-24.55-48.24-30.6-73.72m-4.02 5.59c-12.16 28.51-34.11 54.14-34.83 86.39 16.41-10.34 35.37-20.13 55.69-15.59-16.46-19.88-13.38-48.72-20.86-70.8z"/>
</svg>
